<svg width="105" height="52" viewBox="0 0 105 52" fill="none" xmlns="http://www.w3.org/2000/svg">
<g id="scrollIndicator">
<g id="turnArrows">
<path id="rightArrow" d="M104.249 24.7379C104.425 24.6003 104.456 24.346 104.319 24.1699L102.076 21.3011C101.939 21.1251 101.684 21.0939 101.508 21.2315C101.332 21.3691 101.301 21.6234 101.439 21.7995L103.432 24.3495L100.882 26.3428C100.706 26.4804 100.675 26.7346 100.812 26.9107C100.95 27.0867 101.204 27.1179 101.38 26.9803L104.249 24.7379ZM85.3634 23.2045C92.5389 23.6623 96.8103 23.9456 103.951 24.8207L104.049 24.0175C96.8843 23.1395 92.5936 22.855 85.4149 22.397L85.3634 23.2045Z" fill="#282727"/>
<path id="leftArrow" d="M0.681244 24.1699C0.543637 24.346 0.574798 24.6003 0.750842 24.7379L3.61965 26.9803C3.79569 27.1179 4.04996 27.0867 4.18756 26.9107C4.32517 26.7346 4.29401 26.4804 4.11797 26.3428L1.56791 24.3495L3.56118 21.7995C3.69878 21.6234 3.66762 21.3691 3.49158 21.2315C3.31553 21.0939 3.06127 21.1251 2.92366 21.3011L0.681244 24.1699ZM19.5849 22.397C12.4063 22.855 8.11555 23.1395 0.950786 24.0175L1.04921 24.8207C8.18957 23.9456 12.461 23.6623 19.6365 23.2045L19.5849 22.397Z" fill="#282727"/>
</g>
<path id="scrollToTurn" d="M48.2326 2.52H47.7706V7.206C47.7706 8.999 46.8026 9.692 45.4606 9.692C44.0856 9.692 43.1506 8.977 43.1506 7.206V2.52H42.6886V7.283C42.6886 8.79 43.3596 10.11 45.4606 10.11C47.3746 10.11 48.2326 8.812 48.2326 7.283V2.52ZM54.6734 3.51L54.9044 3.18C54.4644 2.74 53.7824 2.41 52.9684 2.41C51.6814 2.41 50.9554 3.312 50.9554 4.203C50.9554 5.127 51.5384 5.578 52.9354 6.326C54.1894 6.997 54.6294 7.47 54.6294 8.229C54.6294 9.054 54.1674 9.681 52.9464 9.681C52.1984 9.681 51.5714 9.428 51.0984 8.922H51.0874L50.8454 9.307C51.1534 9.681 51.9234 10.11 52.9244 10.11C54.1674 10.11 55.1134 9.417 55.1134 8.284C55.1134 7.272 54.6074 6.711 53.2764 6.007C51.8684 5.259 51.4394 4.852 51.4394 4.126C51.4394 3.433 51.9784 2.828 52.9684 2.828C53.6064 2.828 54.1124 3.015 54.6404 3.51H54.6734ZM61.5687 2.52H57.6417V10H61.6787V9.582H58.1037V6.315H61.2387V5.897H58.1037V2.938H61.5687V2.52ZM29.3199 19.051C30.1009 18.82 30.6179 18.193 30.6179 17.39C30.6179 16.345 29.9359 15.52 28.3629 15.52H26.5699V23H28.6379C30.1229 23 31.0139 22.274 31.0139 20.965C31.0139 19.931 30.2769 19.293 29.3199 19.095V19.051ZM28.4509 19.315C29.5729 19.315 30.5299 19.909 30.5299 20.998C30.5299 22.087 29.7379 22.582 28.6379 22.582H27.0319V19.315H28.4509ZM30.1339 17.412C30.1339 18.38 29.3089 18.897 28.4179 18.897H27.0319V15.938H28.3409C29.4849 15.938 30.1339 16.51 30.1339 17.412ZM39.0426 15.52H38.5806V20.206C38.5806 21.999 37.6126 22.692 36.2706 22.692C34.8956 22.692 33.9606 21.977 33.9606 20.206V15.52H33.4986V20.283C33.4986 21.79 34.1696 23.11 36.2706 23.11C38.1846 23.11 39.0426 21.812 39.0426 20.283V15.52ZM46.7375 15.938V15.52H41.1935V15.938H43.7345V23H44.1965V15.938H46.7375ZM53.6662 15.938V15.52H48.1222V15.938H50.6632V23H51.1252V15.938H53.6662ZM62.2501 19.315C62.2501 16.917 60.6001 15.41 58.7191 15.41C56.8931 15.41 55.1661 16.95 55.1661 19.315C55.1661 21.427 56.5851 23.11 58.7191 23.11C60.8531 23.11 62.2501 21.372 62.2501 19.315ZM61.7661 19.293C61.7661 21.119 60.5891 22.681 58.7191 22.681C56.7831 22.681 55.6501 21.119 55.6501 19.293C55.6501 17.181 57.0911 15.839 58.7191 15.839C60.5011 15.839 61.7661 17.291 61.7661 19.293ZM65.0009 15.443L64.7369 15.531V23H65.1989V16.455L65.2429 16.433L70.6769 23.077L70.9409 23V15.52H70.4789V22.076L70.4349 22.098L65.0009 15.443ZM77.3878 16.51L77.6188 16.18C77.1788 15.74 76.4968 15.41 75.6828 15.41C74.3958 15.41 73.6698 16.312 73.6698 17.203C73.6698 18.127 74.2528 18.578 75.6498 19.326C76.9038 19.997 77.3438 20.47 77.3438 21.229C77.3438 22.054 76.8818 22.681 75.6608 22.681C74.9128 22.681 74.2858 22.428 73.8128 21.922H73.8018L73.5598 22.307C73.8678 22.681 74.6378 23.11 75.6388 23.11C76.8818 23.11 77.8278 22.417 77.8278 21.284C77.8278 20.272 77.3218 19.711 75.9908 19.007C74.5828 18.259 74.1538 17.852 74.1538 17.126C74.1538 16.433 74.6928 15.828 75.6828 15.828C76.3208 15.828 76.8268 16.015 77.3548 16.51H77.3878ZM37.7395 36.077L38.1465 35.857L34.9455 28.344H34.8355L31.6345 35.857L32.0415 36.077L33.1415 33.492H36.6395L37.7395 36.077ZM34.8795 29.411H34.9125L36.4635 33.074H33.3175L34.8795 29.411ZM44.4924 28.938V28.52H38.9484V28.938H41.4894V36H41.9514V28.938H44.4924ZM53.0352 29.51L53.2662 29.18C52.8262 28.74 52.1442 28.41 51.3302 28.41C50.0432 28.41 49.3172 29.312 49.3172 30.203C49.3172 31.127 49.9002 31.578 51.2972 32.326C52.5512 32.997 52.9912 33.47 52.9912 34.229C52.9912 35.054 52.5292 35.681 51.3082 35.681C50.5602 35.681 49.9332 35.428 49.4602 34.922H49.4492L49.2072 35.307C49.5152 35.681 50.2852 36.11 51.2862 36.11C52.5292 36.11 53.4752 35.417 53.4752 34.284C53.4752 33.272 52.9692 32.711 51.6382 32.007C50.2302 31.259 49.8012 30.852 49.8012 30.126C49.8012 29.433 50.3402 28.828 51.3302 28.828C51.9682 28.828 52.4742 29.015 53.0022 29.51H53.0352ZM56.6965 28.52H56.2345V36H56.6965V28.52ZM60.3112 35.582V28.938H61.8292C63.3472 28.938 65.0192 29.906 65.0192 32.304C65.0192 34.251 63.8312 35.582 61.8402 35.582H60.3112ZM61.7962 36C63.9522 36 65.5032 34.592 65.5032 32.326C65.5032 29.994 63.8862 28.52 61.7852 28.52H59.8492V36H61.7962ZM71.9188 28.52H67.9918V36H72.0288V35.582H68.4538V32.315H71.5888V31.897H68.4538V28.938H71.9188V28.52ZM33.0412 41.938V41.52H27.4972V41.938H30.0382V49H30.5002V41.938H33.0412ZM41.6251 45.315C41.6251 42.917 39.9751 41.41 38.0941 41.41C36.2681 41.41 34.5411 42.95 34.5411 45.315C34.5411 47.427 35.9601 49.11 38.0941 49.11C40.2281 49.11 41.6251 47.372 41.6251 45.315ZM41.1411 45.293C41.1411 47.119 39.9641 48.681 38.0941 48.681C36.1581 48.681 35.0251 47.119 35.0251 45.293C35.0251 43.181 36.4661 41.839 38.0941 41.839C39.8761 41.839 41.1411 43.291 41.1411 45.293ZM51.7541 41.938V41.52H46.2101V41.938H48.7511V49H49.2131V41.938H51.7541ZM59.4528 41.52H58.9908V46.206C58.9908 47.999 58.0228 48.692 56.6808 48.692C55.3058 48.692 54.3708 47.977 54.3708 46.206V41.52H53.9088V46.283C53.9088 47.79 54.5798 49.11 56.6808 49.11C58.5948 49.11 59.4528 47.812 59.4528 46.283V41.52ZM66.5976 43.555C66.5976 42.301 65.6736 41.52 64.1666 41.52H62.3736V49H62.8356V45.7H64.2656L66.7296 49.077L67.1036 48.868V48.835L64.7606 45.634C65.7286 45.447 66.5976 44.919 66.5976 43.555ZM66.1136 43.555C66.1136 44.853 65.1786 45.282 64.1336 45.282H62.8356V41.938H64.1776C65.3546 41.938 66.1136 42.532 66.1136 43.555ZM69.7919 41.443L69.5279 41.531V49H69.9899V42.455L70.0339 42.433L75.4679 49.077L75.7319 49V41.52H75.2699V48.076L75.2259 48.098L69.7919 41.443Z" fill="#282727"/>
</g>
</svg>
