<svg width="20" height="43" viewBox="0 0 20 43" fill="none" xmlns="http://www.w3.org/2000/svg">
<path d="M19.6508 40.4709C20.1825 41.1062 20.0985 42.0523 19.4631 42.5839C18.8278 43.1156 17.8818 43.0316 17.3501 42.3963L19.6508 40.4709ZM2.00016 21.7164L0.849822 22.679L0.0442213 21.7164L0.849822 20.7537L2.00016 21.7164ZM17.3501 1.03647C17.8818 0.401154 18.8278 0.317126 19.4632 0.848789C20.0985 1.38045 20.1825 2.32648 19.6508 2.96179L17.3501 1.03647ZM17.3501 42.3963L0.849822 22.679L3.1505 20.7537L19.6508 40.4709L17.3501 42.3963ZM0.849822 20.7537L17.3501 1.03647L19.6508 2.96179L3.1505 22.679L0.849822 20.7537Z" fill="#282727"/>
</svg>
