<svg width="21" height="43" viewBox="0 0 21 43" fill="none" xmlns="http://www.w3.org/2000/svg">
<path d="M0.849659 40.4709C0.317996 41.1062 0.402024 42.0523 1.03734 42.5839C1.67266 43.1156 2.61868 43.0316 3.15034 42.3963L0.849659 40.4709ZM18.5003 21.7164L19.6507 22.679L20.4563 21.7164L19.6507 20.7537L18.5003 21.7164ZM3.15034 1.03647C2.61868 0.401154 1.67265 0.317126 1.03734 0.848789C0.402022 1.38045 0.317994 2.32648 0.849657 2.96179L3.15034 1.03647ZM3.15034 42.3963L19.6507 22.679L17.35 20.7537L0.849659 40.4709L3.15034 42.3963ZM19.6507 20.7537L3.15034 1.03647L0.849657 2.96179L17.35 22.679L19.6507 20.7537Z" fill="#282727"/>
</svg>
