<svg width="105" height="111" viewBox="0 0 105 111" fill="none" xmlns="http://www.w3.org/2000/svg">
<g id="scrollIndicator">
<g id="turnArrows">
<path id="rightArrow" d="M104.249 14.7379C104.425 14.6003 104.456 14.346 104.319 14.1699L102.076 11.3011C101.939 11.1251 101.684 11.0939 101.508 11.2315C101.332 11.3691 101.301 11.6234 101.439 11.7995L103.432 14.3495L100.882 16.3428C100.706 16.4804 100.675 16.7346 100.812 16.9107C100.95 17.0867 101.204 17.1179 101.38 16.9803L104.249 14.7379ZM85.3634 13.2045C92.5389 13.6623 96.8103 13.9456 103.951 14.8207L104.049 14.0175C96.8843 13.1395 92.5936 12.855 85.4149 12.397L85.3634 13.2045Z" fill="#282727"/>
<path id="leftArrow" d="M0.681244 14.1699C0.543637 14.346 0.574798 14.6003 0.750842 14.7379L3.61965 16.9803C3.79569 17.1179 4.04996 17.0867 4.18756 16.9107C4.32517 16.7346 4.29401 16.4804 4.11797 16.3428L1.56791 14.3495L3.56118 11.7995C3.69878 11.6234 3.66762 11.3691 3.49158 11.2315C3.31553 11.0939 3.06127 11.1251 2.92366 11.3011L0.681244 14.1699ZM19.5849 12.397C12.4063 12.855 8.11555 13.1395 0.950786 14.0175L1.04921 14.8207C8.18957 13.9456 12.461 13.6623 19.6365 13.2045L19.5849 12.397Z" fill="#282727"/>
</g>
<g id="mouse">
<path id="Vector 4" d="M51.5953 39.0977V50.8305H62.519H40.2671" stroke="#282727" stroke-width="0.809161"/>
<path id="Rectangle 1" d="M43.5038 38.6959H59.687C61.4746 38.6959 62.9237 40.145 62.9237 41.9325V66.2073C62.9237 72.4638 57.8518 77.5356 51.5954 77.5356C45.339 77.5356 40.2672 72.4638 40.2672 66.2073V41.9325C40.2672 40.145 41.7163 38.6959 43.5038 38.6959Z" stroke="#282727" stroke-width="1.61832"/>
<rect id="Rectangle 2" x="50.3813" y="42.5508" width="2.42748" height="5.66413" rx="1" fill="#282727"/>
</g>
<g id="downArrows">
<path id="down1" d="M47.3209 85.0072C47.1091 84.83 46.7938 84.858 46.6166 85.0697C46.4393 85.2815 46.4673 85.5969 46.6791 85.7741L47.3209 85.0072ZM52 89.5749L51.6791 89.9583L52 90.2268L52.3209 89.9583L52 89.5749ZM57.3209 85.7741C57.5327 85.5969 57.5607 85.2815 57.3834 85.0697C57.2062 84.858 56.8909 84.83 56.6791 85.0072L57.3209 85.7741ZM46.6791 85.7741L51.6791 89.9583L52.3209 89.1914L47.3209 85.0072L46.6791 85.7741ZM52.3209 89.9583L57.3209 85.7741L56.6791 85.0072L51.6791 89.1914L52.3209 89.9583Z" fill="#282727"/>
<path id="down2" d="M47.3209 94.9134C47.1091 94.7362 46.7938 94.7642 46.6166 94.976C46.4393 95.1878 46.4673 95.5031 46.6791 95.6803L47.3209 94.9134ZM52 99.4811L51.6791 99.8646L52 100.133L52.3209 99.8646L52 99.4811ZM57.3209 95.6803C57.5327 95.5031 57.5607 95.1878 57.3834 94.976C57.2062 94.7642 56.8909 94.7362 56.6791 94.9134L57.3209 95.6803ZM46.6791 95.6803L51.6791 99.8646L52.3209 99.0977L47.3209 94.9134L46.6791 95.6803ZM52.3209 99.8646L57.3209 95.6803L56.6791 94.9134L51.6791 99.0977L52.3209 99.8646Z" fill="#282727"/>
<path id="down3" d="M47.3209 104.824C47.1091 104.646 46.7938 104.674 46.6166 104.886C46.4393 105.098 46.4673 105.413 46.6791 105.59L47.3209 104.824ZM52 109.391L51.6791 109.775L52 110.043L52.3209 109.775L52 109.391ZM57.3209 105.59C57.5327 105.413 57.5607 105.098 57.3834 104.886C57.2062 104.674 56.8909 104.646 56.6791 104.824L57.3209 105.59ZM46.6791 105.59L51.6791 109.775L52.3209 109.008L47.3209 104.824L46.6791 105.59ZM52.3209 109.775L57.3209 105.59L56.6791 104.824L51.6791 109.008L52.3209 109.775Z" fill="#282727"/>
</g>
<path id="scrollToTurn" d="M32.7502 6.298C33.1402 6.714 34.1022 7.13 35.1552 7.13C36.7542 7.13 37.4432 6.337 37.4432 5.414C37.4432 4.595 36.9102 3.997 35.4022 3.399C33.9852 2.84 33.6212 2.541 33.6212 1.93C33.6212 1.358 34.1152 0.851 35.0902 0.851C35.8832 0.851 36.4552 1.163 37.0012 1.605L37.3002 1.215C36.8582 0.799 36.0002 0.369999 35.0902 0.369999C33.7642 0.369999 33.0752 1.176 33.0752 1.969C33.0752 2.801 33.6342 3.256 35.1942 3.854C36.3512 4.309 36.8972 4.751 36.8972 5.427C36.8972 6.064 36.4162 6.649 35.1682 6.649C34.2972 6.649 33.5432 6.324 33.0492 5.882L32.7502 6.298ZM44.9641 1.059C44.4701 0.682 43.7291 0.369999 42.7801 0.369999C41.0511 0.369999 39.4131 1.657 39.4131 3.828C39.4131 5.648 40.7781 7.13 42.7541 7.13C43.6381 7.13 44.4831 6.805 45.0811 6.35L44.8471 5.96C44.3401 6.337 43.6251 6.649 42.7801 6.649C41.1421 6.649 39.9591 5.466 39.9591 3.802C39.9591 1.813 41.4281 0.864 42.7541 0.851C43.7291 0.838 44.2491 1.137 44.7171 1.475L44.9641 1.059ZM50.1032 4.153C51.0912 3.945 51.6632 3.243 51.6632 2.359C51.6632 1.254 50.8572 0.5 49.5832 0.5H47.3472V7H47.8672V4.244H49.5182L51.8322 7.052L52.2872 6.87V6.818L50.1032 4.192V4.153ZM51.1172 2.346C51.1172 3.269 50.4932 3.776 49.5052 3.776H47.8672V0.968H49.5962C50.4802 0.968 51.1172 1.501 51.1172 2.346ZM60.6306 3.828C60.6306 1.709 59.0706 0.369999 57.3156 0.369999C55.5216 0.369999 53.9746 1.761 53.9746 3.828C53.9746 5.622 55.3656 7.13 57.3156 7.13C59.2396 7.13 60.6306 5.635 60.6306 3.828ZM60.0846 3.802C60.0846 5.31 59.0316 6.649 57.3416 6.649C55.5606 6.649 54.5206 5.31 54.5206 3.802C54.5206 1.995 55.8206 0.851 57.3026 0.851C58.8886 0.851 60.0846 2.06 60.0846 3.802ZM63.4697 0.5H62.9497V7H66.6937V6.532H63.4697V0.5ZM69.4492 0.5H68.9292V7H72.6732V6.532H69.4492V0.5ZM33.9941 14.968V14.5H28.3521V14.968H30.9001V21H31.4201V14.968H33.9941ZM42.0447 17.828C42.0447 15.709 40.4847 14.37 38.7297 14.37C36.9357 14.37 35.3887 15.761 35.3887 17.828C35.3887 19.622 36.7797 21.13 38.7297 21.13C40.6537 21.13 42.0447 19.635 42.0447 17.828ZM41.4987 17.802C41.4987 19.31 40.4457 20.649 38.7557 20.649C36.9747 20.649 35.9347 19.31 35.9347 17.802C35.9347 15.995 37.2347 14.851 38.7167 14.851C40.3027 14.851 41.4987 16.06 41.4987 17.802ZM52.7324 14.968V14.5H47.0904V14.968H49.6384V21H50.1584V14.968H52.7324ZM60.2569 14.5H59.7369V18.283C59.7369 19.986 58.8139 20.649 57.5789 20.649C56.3049 20.649 55.4209 19.999 55.4209 18.283V14.5H54.9009V18.374C54.9009 19.752 55.5249 21.13 57.5789 21.13C59.4509 21.13 60.2569 19.843 60.2569 18.374V14.5ZM65.8454 18.153C66.8334 17.945 67.4054 17.243 67.4054 16.359C67.4054 15.254 66.5994 14.5 65.3254 14.5H63.0894V21H63.6094V18.244H65.2604L67.5744 21.052L68.0294 20.87V20.818L65.8454 18.192V18.153ZM66.8594 16.346C66.8594 17.269 66.2354 17.776 65.2474 17.776H63.6094V14.968H65.3384C66.2224 14.968 66.8594 15.501 66.8594 16.346ZM70.6628 14.435L70.3638 14.5V21H70.8838V15.488L70.9228 15.475L75.6808 21.065L75.9798 21V14.5H75.4598V20.012L75.4208 20.038L70.6628 14.435Z" fill="#282727"/>
</g>
</svg>
